<?xml version="1.0" standalone="no"?>
<!DOCTYPE svg PUBLIC "-//W3C//DTD SVG 20010904//EN"
 "http://www.w3.org/TR/2001/REC-SVG-20010904/DTD/svg10.dtd">
<svg version="1.0" xmlns="http://www.w3.org/2000/svg"
 width="400.000000pt" height="400.000000pt" viewBox="0 0 400.000000 400.000000"
 preserveAspectRatio="xMidYMid meet">
<metadata>
Created by potrace 1.14, written by Peter Selinger 2001-2017
</metadata>
<g transform="translate(0.000000,400.000000) scale(0.100000,-0.100000)"
fill="#000000" stroke="none">
<path d="M1835 3673 c-159 -14 -388 -78 -552 -153 -105 -49 -105 -48 -78 -155
50 -196 180 -329 370 -381 39 -10 132 -19 270 -24 116 -4 224 -12 240 -18 165
-52 265 -183 280 -364 11 -139 42 -214 121 -293 176 -175 475 -142 610 67 34
53 64 150 64 206 0 63 10 113 21 106 5 -3 6 1 3 9 -5 14 33 107 43 107 3 0 3
-7 -1 -15 -7 -19 3 -19 24 0 14 13 17 13 17 1 0 -8 -5 -14 -10 -13 -5 1 -11
-3 -14 -10 -5 -13 14 -12 37 2 12 7 13 6 3 -7 -7 -8 -9 -19 -5 -24 4 -4 0 -3
-10 4 -9 8 -19 9 -22 4 -3 -6 0 -12 8 -15 9 -4 13 -14 9 -29 -4 -22 -4 -22 11
-4 9 11 16 15 16 10 0 -6 -3 -14 -6 -17 -4 -4 -8 -23 -10 -44 -3 -38 -3 -38
12 -13 15 25 15 25 8 1 -5 -18 -3 -22 7 -16 8 5 11 5 7 0 -4 -4 -3 -14 4 -22
6 -8 7 -13 2 -12 -29 5 -34 -3 -13 -21 15 -12 18 -19 9 -18 -15 3 -16 -8 -4
-60 3 -14 9 -20 17 -16 7 4 9 4 5 -1 -4 -4 -2 -15 5 -24 11 -14 10 -14 -5 -2
-19 15 -25 2 -7 -16 8 -8 8 -13 0 -18 -14 -8 -25 19 -17 41 4 10 2 13 -6 8 -6
-4 -8 -3 -5 4 11 16 -3 42 -22 42 -14 0 -14 -2 -1 -10 13 -8 8 -14 -11 -12 -3
1 -6 -6 -6 -14 0 -11 4 -11 19 3 10 9 18 11 18 5 0 -6 -4 -14 -10 -17 -5 -3
-10 -12 -10 -18 0 -7 4 -6 10 3 8 13 10 13 10 -2 0 -9 3 -25 6 -35 5 -16 4
-16 -10 2 -16 19 -16 19 -12 -5 2 -14 9 -24 15 -22 6 1 11 -8 11 -20 0 -19 -2
-20 -10 -8 -6 9 -10 10 -10 3 0 -6 4 -15 10 -18 6 -4 4 -15 -5 -29 -14 -21
-14 -25 0 -36 12 -10 13 -16 3 -29 -12 -15 -11 -15 6 -1 18 14 19 13 13 -3 -4
-10 -7 -21 -7 -23 0 -3 -4 -3 -8 0 -11 6 -10 -70 1 -80 4 -4 -1 -17 -10 -28
-14 -15 -14 -18 -2 -8 16 12 29 7 29 -10 0 -5 -6 -6 -12 -2 -7 4 -10 4 -6 -1
4 -4 3 -14 -4 -22 -8 -11 -7 -12 5 -7 22 8 24 19 23 101 -2 62 0 71 16 70 12
-1 14 -4 7 -14 -13 -15 -19 -73 -8 -73 4 0 9 8 11 18 3 14 5 13 10 -5 3 -12 3
-22 -1 -21 -19 2 -31 -3 -26 -12 3 -5 12 -7 19 -4 8 3 17 1 21 -5 3 -7 0 -8
-9 -5 -8 3 -19 -3 -25 -15 -15 -27 -14 -30 7 -26 9 1 11 0 4 -2 -11 -4 -11 -8
0 -21 11 -15 11 -15 -2 -6 -8 6 -24 9 -35 7 -11 -2 -26 -5 -33 -5 -8 -1 -6 -9
7 -22 14 -14 19 -31 16 -51 -2 -17 -4 -36 -4 -43 -1 -7 -5 -11 -9 -8 -10 6
-10 46 1 62 4 7 -1 18 -11 25 -15 13 -16 12 -4 -3 7 -9 9 -19 4 -22 -5 -3 -8
-18 -7 -33 1 -15 -5 -37 -14 -48 -16 -20 -15 -20 5 -2 20 16 34 14 34 -5 0 -5
-4 -7 -9 -3 -5 3 -13 0 -18 -7 -14 -24 -11 -36 8 -31 10 3 20 10 20 17 1 6 3
22 5 36 2 14 5 36 5 49 1 15 4 19 9 10 5 -7 5 -22 0 -34 -4 -12 -4 -29 2 -39
8 -14 12 -15 26 -4 9 7 5 -1 -10 -18 -31 -34 -37 -53 -10 -33 14 11 15 11 5 0
-6 -7 -9 -21 -6 -30 2 -9 -4 -4 -13 12 -10 15 -22 27 -26 27 -19 0 -28 -44
-19 -92 0 -4 9 -5 19 -1 15 5 14 4 -2 -9 -13 -10 -15 -17 -8 -22 7 -4 12 -2
12 5 0 7 3 9 6 6 4 -4 1 -13 -5 -21 -9 -11 -10 -20 -1 -36 8 -15 8 -20 -2 -18
-15 4 -18 -22 -4 -42 9 -13 8 -13 -5 -3 -16 13 -29 8 -29 -9 0 -5 4 -7 8 -4 5
3 9 -1 9 -9 0 -11 -4 -12 -14 -4 -9 8 -13 8 -13 1 0 -6 5 -14 10 -17 6 -3 10
-11 10 -18 0 -6 -7 -2 -15 9 -15 18 -15 18 -12 -6 1 -14 7 -31 11 -39 6 -8 -1
-6 -16 5 -14 10 -21 22 -16 25 6 4 7 17 3 30 -5 19 -4 21 5 9 9 -12 10 -10 5
10 -5 19 -4 21 4 10 8 -11 9 -4 6 28 -4 38 -2 43 13 38 16 -6 16 -5 0 8 -22
16 -23 23 -3 23 8 0 15 -6 15 -13 0 -7 5 -16 12 -20 8 -5 9 -2 4 12 -5 10 -9
28 -10 39 -1 11 -7 30 -14 41 -6 12 -10 23 -9 25 1 2 0 3 -2 1 -7 -4 -8 -41
-2 -39 3 1 6 -2 6 -8 0 -5 -4 -8 -10 -7 -5 2 -7 0 -3 -4 4 -4 3 -13 -4 -21 -6
-7 -8 -16 -5 -20 4 -3 2 -14 -3 -24 -7 -12 -7 -20 0 -24 6 -4 8 -11 4 -16 -3
-5 -14 1 -26 13 l-20 23 16 -25 c21 -32 20 -46 -1 -29 -15 11 -16 11 -5 -1 15
-17 16 -34 2 -25 -6 4 -9 1 -8 -7 2 -7 -3 -12 -10 -10 -8 1 -11 -2 -7 -8 5 -8
13 -6 26 6 10 9 19 13 19 7 0 -5 -8 -17 -18 -26 -15 -13 -21 -14 -32 -4 -12
10 -12 9 -4 -3 9 -13 10 -22 5 -46 0 -4 -9 0 -18 7 -16 13 -17 12 -4 -3 7 -10
17 -15 22 -12 5 3 9 -5 9 -18 0 -13 -4 -18 -8 -13 -4 6 -16 17 -27 25 -19 14
-20 14 -2 -6 9 -11 14 -24 10 -29 -5 -4 -2 -5 5 -1 7 4 12 1 12 -8 0 -8 -8
-13 -17 -11 -12 1 -17 9 -15 21 2 11 0 16 -4 11 -4 -4 -8 -22 -9 -40 0 -23 -5
-31 -15 -29 -8 2 -12 0 -8 -4 4 -4 2 -14 -4 -22 -10 -11 -7 -19 18 -41 16 -14
25 -23 20 -18 -14 10 -28 9 -21 -2 3 -5 1 -12 -5 -16 -5 -3 -10 -11 -10 -17 0
-7 6 -6 15 2 10 9 15 9 15 1 0 -6 -4 -11 -10 -11 -5 0 -7 -8 -3 -17 5 -15 3
-15 -11 2 -15 17 -17 17 -12 3 8 -28 -2 -21 -18 11 -13 24 -13 31 -2 40 8 7
16 7 23 0 6 -6 10 -5 10 5 0 8 -4 13 -9 10 -4 -3 -8 0 -8 7 0 6 -8 1 -19 -12
-10 -13 -16 -30 -13 -38 3 -8 1 -12 -4 -8 -6 3 -10 -5 -10 -18 0 -13 4 -21 8
-19 5 3 6 9 3 14 -3 5 -2 11 3 13 4 3 12 -5 18 -18 10 -20 9 -23 -7 -20 -11 2
-19 -1 -19 -7 0 -7 -6 -3 -14 7 -8 11 -12 24 -8 30 3 5 -2 4 -11 -4 -18 -14
-22 -23 -9 -19 4 2 8 -1 10 -7 3 -13 -20 -14 -37 -1 -11 8 -13 8 -8 0 5 -8
-20 -13 -82 -16 -79 -4 -95 -8 -146 -39 -98 -58 -140 -142 -146 -289 -2 -36
-8 -71 -14 -79 -7 -11 -7 -13 2 -8 8 5 10 1 6 -15 -3 -13 -6 -33 -7 -45 0 -12
-5 -21 -11 -20 -5 1 -9 -4 -7 -11 1 -8 -2 -11 -8 -7 -14 9 -13 -8 3 -24 10
-11 9 -12 -3 -5 -8 5 -19 9 -24 9 -5 0 -11 7 -13 15 -4 13 -3 13 7 0 10 -13
11 -12 6 3 -4 12 -2 16 6 11 7 -5 8 -3 3 6 -6 9 -4 11 5 5 9 -6 11 -4 5 5 -5
9 -4 11 4 6 6 -4 10 -4 9 1 -1 4 3 19 10 33 11 21 11 22 0 9 -7 -9 -17 -17
-23 -17 -5 -1 -10 -6 -10 -12 0 -5 -4 -10 -10 -10 -5 0 -10 4 -10 9 0 5 -3 12
-7 16 -9 9 -5 -16 5 -32 5 -7 4 -13 -2 -13 -5 0 -13 5 -16 11 -5 7 -13 5 -24
-5 -10 -9 -22 -13 -26 -9 -5 5 -3 0 4 -9 7 -10 10 -27 6 -40 -5 -20 -5 -21 5
-5 7 10 9 24 6 32 -2 7 2 19 9 25 12 10 16 9 21 -6 3 -11 10 -27 15 -37 6 -11
8 -21 6 -23 -2 -3 -12 10 -20 28 -13 25 -17 28 -17 12 0 -11 6 -26 13 -34 10
-12 9 -12 -5 -1 -19 14 -25 2 -8 -15 7 -7 2 -10 -14 -10 -20 0 -23 5 -22 29 1
15 -1 30 -4 32 -7 4 -8 -4 -11 -51 -1 -19 -4 -22 -10 -13 -5 8 -6 23 -3 34 5
19 4 19 -8 -1 -7 -12 -20 -20 -29 -19 -12 2 -15 -3 -11 -18 5 -20 6 -20 13 -1
7 18 8 17 8 -3 1 -13 -4 -23 -10 -23 -5 0 -7 -6 -3 -12 6 -10 3 -9 -8 0 -9 8
-14 20 -11 28 3 8 0 14 -7 14 -6 0 -9 4 -6 8 3 5 -1 9 -9 9 -8 0 -13 -5 -12
-11 1 -6 -4 -10 -11 -8 -8 1 -11 -1 -8 -6 2 -4 1 -14 -5 -22 -6 -11 -9 -11 -9
-2 0 8 -8 6 -22 -7 -17 -16 -24 -18 -35 -9 -8 6 -13 7 -11 2 2 -5 -1 -10 -7
-11 -5 -2 -10 1 -10 6 0 5 -3 12 -6 16 -4 3 -6 -2 -5 -12 0 -10 -3 -18 -9 -18
-5 0 -9 5 -7 10 2 6 0 6 -5 2 -8 -8 -9 -12 -12 -39 -1 -9 -4 -8 -11 2 -9 13
-10 13 -10 0 0 -13 -2 -13 -11 0 -9 12 -10 12 -5 -3 3 -10 6 -22 6 -25 0 -4 5
0 11 8 9 13 10 13 6 0 -2 -8 -9 -15 -15 -15 -7 0 -12 -4 -12 -10 0 -5 4 -10 9
-10 5 0 12 -3 15 -8 3 -4 3 -5 -1 -2 -3 3 -14 -2 -24 -11 -11 -10 -19 -12 -24
-4 -3 6 -2 9 3 8 6 -2 10 2 10 7 0 6 -5 8 -11 6 -34 -10 -51 -5 -58 19 -4 14
-7 18 -8 8 -1 -9 -4 -25 -7 -35 -4 -13 -3 -14 4 -5 7 11 10 11 15 -2 4 -10 13
-13 24 -9 19 7 18 5 -10 -17 -10 -7 -17 -9 -15 -4 2 5 -2 9 -7 9 -6 0 -9 -6
-9 -12 1 -7 -3 -10 -8 -7 -5 3 -7 12 -4 20 3 8 1 14 -5 14 -6 0 -7 4 -4 10 11
18 14 51 4 45 -5 -4 -7 -11 -4 -16 4 -5 2 -9 -3 -9 -5 0 -8 -14 -7 -30 3 -35
-7 -32 -12 3 -2 12 -10 28 -18 34 -10 9 -11 9 -5 1 21 -26 8 -68 -22 -74 -5
-1 -11 -2 -14 -3 -4 0 0 -9 7 -19 11 -15 11 -15 -1 -4 -8 7 -15 18 -15 25 0 7
-13 12 -30 12 -34 0 -58 12 -50 25 3 5 0 12 -6 16 -7 4 -9 3 -6 -3 4 -6 0 -16
-8 -23 -8 -7 -12 -16 -9 -22 3 -5 12 -4 20 3 10 8 14 8 14 0 0 -6 -5 -11 -11
-11 -5 0 -7 -5 -4 -10 5 -8 11 -8 19 -1 9 8 13 7 13 -2 0 -7 -11 -13 -23 -13
-12 0 -22 4 -21 9 1 5 -4 12 -12 15 -8 2 -11 0 -8 -5 4 -6 -5 -9 -20 -8 -15 0
-28 7 -31 15 -3 13 -2 12 7 0 10 -13 11 -13 11 0 0 11 3 12 8 3 5 -8 13 -3 23
16 12 21 13 28 3 28 -7 0 -13 -3 -12 -6 3 -27 -3 -32 -19 -14 -10 10 -15 14
-10 9 10 -14 9 -28 -3 -21 -6 3 -13 -1 -16 -9 -3 -9 -10 -16 -15 -16 -6 0 -5
8 1 19 5 11 10 23 10 28 -1 4 -8 -5 -16 -20 -18 -33 -18 -34 21 -42 346 -69
785 10 1116 201 273 158 503 399 645 676 200 394 245 812 130 1229 -157 573
-615 1025 -1190 1173 -177 47 -408 65 -591 49z m1489 -1199 c3 -8 2 -12 -4 -9
-6 3 -10 10 -10 16 0 14 7 11 14 -7z m12 -120 c-5 -19 -4 -24 6 -18 7 4 10 4
6 -1 -4 -4 -2 -15 4 -24 9 -11 6 -10 -9 2 -12 10 -24 14 -27 9 -3 -6 1 -12 9
-16 11 -4 13 -11 5 -31 -5 -14 -7 -25 -5 -25 15 0 20 3 17 12 -1 5 2 7 8 3 8
-5 8 -11 1 -19 -6 -7 -8 -15 -5 -19 15 -15 -27 1 -45 17 -17 16 -18 22 -9 40
7 11 13 24 14 29 1 4 3 10 4 15 1 4 2 10 1 15 0 4 4 7 9 7 6 0 10 7 10 15 0 8
3 15 6 15 3 0 3 -12 0 -26z m-29 -204 c-1 -43 -10 -45 -13 -2 -1 25 3 42 10
42 2 0 3 -18 3 -40z m0 -145 c-4 -8 -2 -17 3 -20 5 -3 10 3 12 12 3 15 5 14
10 -5 3 -12 2 -20 -3 -16 -11 6 -11 2 -3 -20 3 -9 10 -13 15 -10 5 3 6 -3 2
-12 -5 -13 -10 -9 -24 19 -11 20 -24 39 -30 43 -8 4 -7 9 2 15 19 12 22 11 16
-6z m29 -110 c-1 -8 -5 -17 -8 -21 -5 -4 -4 16 1 34 3 9 9 -1 7 -13z m-56 -45
c0 -5 -5 -10 -11 -10 -5 0 -7 5 -4 10 3 6 8 10 11 10 2 0 4 -4 4 -10z m15 -80
c0 -3 4 -11 9 -18 4 -7 5 -16 2 -19 -3 -4 -6 -2 -6 4 0 6 -9 9 -20 6 -11 -3
-20 0 -20 6 0 5 6 8 13 5 8 -3 14 2 14 11 0 9 -6 14 -14 11 -15 -6 -16 -4 -7
19 6 16 8 16 18 -1 6 -11 11 -21 11 -24z m-89 -281 c10 -11 14 -19 9 -17 -6 2
-10 -1 -10 -7 0 -5 4 -9 9 -7 5 2 4 -3 -2 -11 -7 -8 -8 -18 -4 -22 4 -5 1 -5
-6 -1 -7 4 -10 11 -7 16 3 5 1 11 -5 15 -5 3 -10 -3 -10 -14 0 -11 5 -23 10
-26 7 -4 7 -13 0 -26 -6 -11 -15 -17 -20 -14 -15 9 -3 135 14 135 2 0 11 -9
22 -21z m-52 -118 c9 -7 16 -18 16 -24 0 -6 -7 -2 -15 9 -16 22 -20 12 -5 -16
7 -13 5 -21 -8 -31 -15 -12 -15 -12 -5 1 8 10 9 21 3 30 -6 8 -10 13 -11 10
-6 -34 -8 -43 -13 -48 -3 -3 -6 0 -6 6 0 7 -5 12 -11 12 -5 0 -7 -6 -3 -12 5
-10 4 -10 -6 -1 -11 11 -10 17 9 37 13 14 20 29 17 34 -9 14 19 9 38 -7z
m-745 -826 c0 -5 -4 -3 -9 5 -5 8 -9 22 -9 30 0 16 17 -16 18 -35z m-75 11
c-3 -8 -1 -17 5 -21 6 -3 11 -11 11 -18 0 -6 -7 -2 -16 9 -12 15 -14 15 -10 2
2 -9 -3 -23 -13 -32 -15 -14 -17 -13 -19 11 -2 30 24 77 38 68 5 -3 7 -12 4
-19z m-57 -36 c-1 -12 -10 -29 -21 -38 -18 -15 -19 -15 -8 0 8 10 9 19 3 22
-8 6 -27 -30 -24 -45 1 -3 -4 -6 -11 -6 -7 0 -13 6 -13 13 0 7 4 11 9 8 4 -3
7 5 5 18 -1 12 4 23 11 24 6 1 15 3 20 4 4 1 10 2 15 1 4 0 7 4 7 9 0 6 2 10
4 10 3 0 4 -9 3 -20z m-82 -27 c-4 -10 -8 -23 -9 -30 -1 -7 -5 -15 -9 -19 -7
-7 1 45 9 58 10 15 16 8 9 -9z m-31 -15 c-4 -13 -7 -28 -7 -35 0 -7 -4 -10 -8
-7 -4 2 -3 18 3 34 12 35 23 41 12 8z m-188 -110 c4 -7 4 -10 -1 -6 -4 4 -15
2 -24 -5 -14 -11 -14 -10 -2 6 16 20 18 21 27 5z"/>
<path d="M3309 2298 c-6 -22 -5 -38 3 -38 6 0 8 6 5 14 -3 8 -1 17 6 20 9 3 9
5 0 5 -7 1 -13 0 -14 -1z"/>
<path d="M3179 1498 c0 -2 -2 -11 -4 -21 -3 -15 -1 -16 11 -6 7 6 11 15 8 20
-5 9 -13 12 -15 7z"/>
<path d="M3170 1401 c0 -25 6 -27 13 -6 4 8 2 17 -3 20 -6 4 -10 -3 -10 -14z"/>
<path d="M3111 1346 c-9 -11 -9 -16 1 -22 7 -4 10 -4 6 1 -4 4 -3 14 3 22 6 7
9 13 6 13 -2 0 -10 -6 -16 -14z"/>
<path d="M2306 544 c-8 -21 -8 -49 1 -41 7 7 14 57 8 57 -1 0 -6 -7 -9 -16z"/>
<path d="M3208 2739 c-5 -46 -4 -68 3 -64 4 3 15 -2 24 -11 13 -13 14 -19 4
-25 -7 -4 -18 -5 -24 -2 -5 4 -6 2 -2 -3 5 -5 14 -9 20 -9 7 0 13 -9 15 -20 3
-17 1 -18 -8 -5 -10 13 -11 13 -7 -1 3 -9 0 -22 -6 -29 -9 -10 -9 -11 3 -4 39
23 49 -2 21 -53 -7 -15 -7 -20 4 -20 7 0 11 7 8 16 -3 11 0 10 13 -4 13 -16
16 -17 11 -3 -3 10 -2 20 4 24 6 3 3 11 -7 19 -16 11 -16 13 2 23 18 11 18 13
-8 16 -8 1 -12 14 -10 34 1 17 -2 32 -8 32 -5 0 -10 7 -10 15 0 8 -7 15 -16
15 -8 0 -13 4 -9 10 3 5 13 7 23 4 15 -5 15 -4 -1 6 -9 6 -15 15 -12 19 2 5
-2 14 -10 21 -12 10 -15 10 -17 -1z m18 -24 c-3 -20 -16 -31 -16 -13 0 13 8
28 16 28 1 0 1 -7 0 -15z"/>
<path d="M3239 2558 c-5 -18 -6 -38 -1 -34 7 8 12 36 6 36 -2 0 -4 -1 -5 -2z"/>
<path d="M324 1894 c38 -595 393 -1132 921 -1393 111 -55 220 -99 288 -115
l27 -6 0 334 c0 384 -4 405 -82 485 -56 57 -111 81 -208 90 -94 10 -155 37
-205 93 -59 65 -68 96 -75 259 -5 137 -7 150 -35 205 -34 65 -101 124 -165
143 -23 7 -122 11 -255 11 l-218 0 7 -106z"/>
<path d="M3297 1839 c-4 -16 -3 -18 9 -8 7 6 11 15 8 20 -8 13 -11 11 -17 -12z"/>
<path d="M3234 1613 c0 -15 3 -20 10 -13 14 14 16 37 2 37 -7 0 -12 -11 -12
-24z"/>
<path d="M3060 1245 c0 -8 2 -15 4 -15 2 0 6 7 10 15 3 8 1 15 -4 15 -6 0 -10
-7 -10 -15z"/>
<path d="M2373 625 c0 -8 4 -12 9 -9 5 3 6 10 3 15 -9 13 -12 11 -12 -6z"/>
<path d="M2245 571 c-3 -5 -2 -12 3 -15 5 -3 9 1 9 9 0 17 -3 19 -12 6z"/>
<path d="M2078 465 c-6 -13 -15 -22 -20 -19 -5 3 -5 11 1 18 8 9 7 13 -2 13
-7 0 -13 -10 -13 -23 0 -17 5 -21 20 -18 11 2 27 11 35 20 12 12 12 15 2 9
-11 -6 -13 -4 -8 8 10 26 -2 20 -15 -8z"/>
<path d="M1864 442 c4 -3 14 -7 22 -8 9 -1 13 0 10 4 -4 3 -14 7 -22 8 -9 1
-13 0 -10 -4z"/>
<path d="M1922 446 c4 -5 0 -14 -9 -21 -20 -15 -11 -44 14 -41 24 4 28 39 6
57 -10 7 -15 9 -11 5z m18 -32 c0 -8 -4 -13 -9 -10 -5 4 -12 0 -14 -6 -4 -8
-6 -7 -6 4 -1 14 6 21 27 27 1 1 2 -6 2 -15z"/>
<path d="M1849 428 c-8 -26 -4 -34 16 -34 12 0 22 6 22 13 0 7 -4 13 -9 13 -4
0 -8 -5 -8 -11 0 -5 -5 -7 -10 -4 -6 4 -8 11 -5 16 4 5 4 9 1 9 -3 0 -6 -1 -7
-2z"/>
<path d="M1570 391 c0 -10 19 -25 25 -20 1 2 -3 10 -11 17 -8 7 -14 8 -14 3z"/>
<path d="M1615 390 c-8 -13 3 -30 18 -30 8 0 7 3 -2 9 -7 5 -10 14 -7 20 4 6
5 11 2 11 -3 0 -8 -4 -11 -10z"/>
<path d="M1640 394 c0 -15 27 -50 34 -43 14 14 14 46 0 46 -9 0 -11 -4 -4 -12
5 -7 7 -15 3 -19 -4 -4 -13 4 -20 16 -7 13 -12 18 -13 12z"/>
</g>
</svg>
